<?xml version="1.0" encoding="UTF-8"?>
<svg id="_图层_2" data-name="图层 2" xmlns="http://www.w3.org/2000/svg" viewBox="0 0 400.42 393.23">
  <defs>
    <style>
      .cls-1 {
        stroke-width: 0px;
      }
    </style>
  </defs>
  <g id="_图层_1-2" data-name="图层 1">
    <path class="cls-1" d="M98.1,364.83c-1.03-.74-2.05-1.49-3.07-2.26-.68-.51-2.5-2.02.23.19-.56-.45-1.13-.88-1.68-1.33-2.06-1.65-4.07-3.35-6.04-5.1-3.92-3.48-7.67-7.15-11.24-10.98s-7.05-7.95-10.35-12.12c-.99-1.25.72.94.73.95-.21-.25-.4-.52-.6-.79-.4-.53-.8-1.05-1.19-1.58-.84-1.13-1.67-2.27-2.49-3.42-1.6-2.24-3.14-4.51-4.65-6.82-6.03-9.24-11.31-18.95-15.87-28.99-.57-1.25-1.13-2.51-1.68-3.77-.27-.63-.52-1.28-.82-1.9.02.04,1.08,2.59.46,1.08-.16-.4-.33-.8-.49-1.2-1.08-2.65-2.12-5.31-3.11-8-1.96-5.32-3.74-10.72-5.34-16.16-3.65-12.45-6.32-25.18-8.05-38.03l.38,2.79c-2.89-21.79-3.05-43.92-.14-65.71l-.38,2.79c2.15-15.81,5.91-31.38,11.47-46.35H13.92c6.72,23.42,13.69,46.84,22.78,69.47,9.19,22.9,20.28,44.89,35.86,64.15,8.21,10.14,17.77,19.01,28.49,26.44,3.43,2.37,8.58,1.56,11.66-.82s5.11-7.06,3.76-11.04c-7.8-22.98-13.26-46.71-16.49-70.76l.38,2.79c-3.52-26.56-4.34-53.48-2.35-80.2.56-7.53,1.35-15.03,2.35-22.51l-.38,2.79c.9-6.61,1.68-13.4,3.83-19.74.06-.17.71-2.08.77-2.07s-1.11,2.42-.41,1.02c.16-.32.31-.64.47-.95.32-.62.67-1.22,1.04-1.81.08-.13.6-.73.57-.85.03.14-1.68,2-.71.93.45-.5.89-.99,1.38-1.44.32-.3,1.56-1.28.09-.12s-.24.24.12.02.72-.37,1.07-.57c1.03-.59-2,.61-.85.39.87-.16,1.7-.46,2.58-.6l-2.79.38c2-.25,3.97-.19,5.97.07l-2.79-.38c3.55.53,6.99,1.59,10.36,2.81.73.26,1.46.54,2.18.82.45.18.9.37,1.35.55,1.23.5-2.1-.92-.89-.37,1.7.77,3.39,1.55,5.05,2.4,3.09,1.59,6.08,3.36,8.96,5.3,1.42.95,2.8,1.96,4.18,2.96s-.56-.43-.68-.54c.37.34.8.63,1.19.94.79.64,1.57,1.29,2.34,1.95,5.59,4.8,10.53,10.21,15.04,16.02,5.1,6.55,11.1,13.16,19.69,14.77,17.71,3.31,32.22-10.83,43.12-22.87,9.93-10.96,18.57-23.2,25.59-36.21,8.16-15.12,14.42-31.37,18.53-48.06-6.87-.93-13.75-1.86-20.62-2.79-.13.96-.25,1.91-.38,2.87l.38-2.79c-4.69,34.76-11.25,69.27-19.72,103.32-4.05,16.3-8.12,32.81-13.84,48.61-.67,1.84-1.38,3.66-2.1,5.48-.66,1.65.23-.54.31-.72-.18.39-.34.79-.51,1.19-.47,1.08-.97,2.15-1.47,3.21-1.69,3.52-3.58,6.95-5.74,10.21-.46.7-.94,1.38-1.42,2.06-.25.36-.52.7-.77,1.06-1.31,1.82,1.19-1.46.25-.32-1.3,1.58-2.61,3.15-3.99,4.66-2.59,2.84-5.33,5.53-8.08,8.2-11.83,11.49-23.48,23.85-27.57,40.36-2.04,8.23-2.38,17.52.81,25.52s8.13,14.94,15.65,18.7c8.44,4.22,17.77,3.81,25.34-2.04,6.63-5.12,10.28-12.79,14.52-19.81,3.86-6.38,8.01-12.59,12.47-18.57.55-.73,1.1-1.46,1.65-2.18,1.04-1.37-.43.56-.53.68.26-.31.5-.64.75-.95,1.25-1.58,2.51-3.15,3.81-4.69,2.31-2.76,4.68-5.46,7.13-8.09,4.89-5.25,10.06-10.23,15.53-14.88,1.26-1.07,2.53-2.11,3.81-3.14.58-.47,3.46-2.5.61-.5.78-.55,1.53-1.16,2.31-1.73,2.77-2.04,5.6-3.99,8.49-5.84,5.79-3.7,11.84-7,18.12-9.8.8-.36,3.56-1.2.56-.26.79-.24,1.55-.63,2.31-.93,1.93-.76,3.88-1.46,5.85-2.12,3.52-1.18,7.1-2.19,10.71-3.04s7.23-1.5,10.88-2.01l-2.79.38c9.91-1.33,19.94-1.39,29.86-.11l-2.79-.38c7.09.96,14.08,2.59,20.83,4.94,1.65.58,3.29,1.19,4.92,1.85.33.13,1.72.71.18.07-1.7-.71.24.11.46.21.76.34,1.51.69,2.27,1.04,3.42,1.62,6.73,3.44,9.96,5.42l5.3-19.57c-19.19-2.08-38.56,4.98-53.63,16.62-16.61,12.83-28.09,30.69-33.98,50.76-2.78,9.47-4.61,19.2-7.46,28.65-.7,2.31-1.46,4.6-2.32,6.85-.19.51-.41,1.02-.6,1.53-.36.94.55-1.26.54-1.25-.06.01-.29.67-.32.74-.51,1.14-1.04,2.27-1.62,3.38-1.05,2.02-2.22,3.98-3.55,5.83-.07.1-.46.51-.46.63,0,.06,1.49-1.86.85-1.1-.33.4-.66.81-1,1.2-.86.99-1.76,1.93-2.72,2.82-.46.43-.93.84-1.41,1.24-.23.2-.5.38-.72.59-.05.05,1.83-1.34.9-.71-1.1.75-2.17,1.52-3.3,2.22-2.25,1.38-4.6,2.59-6.97,3.74-4.65,2.24-9.38,4.3-13.97,6.69-9.01,4.69-17.61,10.15-25.73,16.25-18.16,13.63-33.83,29.77-47.18,48.13-1.61,2.21-3.17,4.46-4.7,6.73-3.08,4.57-1.03,11.83,3.77,14.37,5.3,2.8,11.08,1.11,14.37-3.77,1.41-2.09,2.85-4.17,4.33-6.22.74-1.02,1.48-2.03,2.24-3.04.38-.5.76-1,1.13-1.5.67-.88.51-.66-.5.64.26-.33.51-.66.77-.99,3.07-3.91,6.28-7.72,9.61-11.41,6.55-7.25,13.6-14.05,21.11-20.3,1.7-1.41,3.47-2.74,5.16-4.15-2.67,2.23.55-.4,1.21-.9,1.12-.83,2.25-1.65,3.38-2.46,3.87-2.75,7.84-5.35,11.9-7.8,8.18-4.92,16.83-8.69,25.34-12.95,9.61-4.82,17.72-11.73,23.14-21.1,4.79-8.29,7.59-17.65,9.92-26.88s4.14-18.13,7.32-26.85c.36-.98.74-1.95,1.13-2.92.78-1.99-1.05,2.37-.18.42.23-.51.46-1.03.69-1.55,1.01-2.2,2.12-4.37,3.31-6.48,1-1.77,2.05-3.5,3.17-5.19.6-.91,1.23-1.82,1.86-2.71.32-.44.64-.88.97-1.32,1.66-2.23-1.13,1.38.02-.03,3.05-3.74,6.3-7.27,9.91-10.48.79-.7,1.59-1.38,2.4-2.05.4-.33.82-.66,1.22-.99,1.41-1.13-2.25,1.68-.05.06,1.94-1.43,3.95-2.77,6.01-4.01,1.89-1.14,3.84-2.19,5.83-3.16.88-.42,4.79-1.98,1.17-.6,1.09-.42,2.17-.87,3.28-1.26,4.21-1.5,8.55-2.56,12.98-3.17l-2.79.38c4.73-.61,9.49-.68,14.24-.17,2.22.24,4.69-.96,6.36-2.25s3.26-3.26,3.76-5.45c1.05-4.62-.72-9.34-4.83-11.86-30.33-18.59-68.4-21.65-101.84-10.09-31.13,10.76-57.49,32.41-77.55,58.19-6.07,7.8-11.75,15.87-16.85,24.34-2.34,3.88-4.47,7.89-7.05,11.62-1.18,1.71,1.32-1.56.41-.51-.44.5-.85,1.02-1.32,1.5-.26.27-.52.53-.79.79-.27.25-.55.5-.83.73l1.26-.97c-.27.35-.99.67-1.38.88-.94.53-1.97.38.83-.27-.86.2-1.67.51-2.56.65l2.79-.38c-1.01.12-1.99.12-3.01,0l2.79.38c-1.03-.15-1.98-.42-2.97-.73-1.68-.52,2.4,1.24.86.34-.4-.23-.81-.43-1.21-.67-.37-.23-1.36-.66-1.56-1.05l1.37,1.05c-.25-.21-.5-.42-.74-.64-.8-.72-1.55-1.51-2.25-2.33-1.51-1.79,1.27,1.91.23.3-.28-.44-.59-.86-.86-1.3-.6-.98-1.11-2-1.61-3.03-.34-.75-.16-.32.53,1.28-.13-.33-.26-.67-.38-1-.18-.51-.34-1.02-.49-1.54-.35-1.22-.59-2.45-.77-3.7l.38,2.79c-.37-3.07-.29-6.14.11-9.2l-.38,2.79c.27-1.84.64-3.65,1.14-5.44.25-.89.53-1.78.83-2.65.17-.49.34-.97.53-1.45.14-.37.81-2.13.17-.46s.54-1.1.76-1.55c.41-.83.84-1.65,1.3-2.45.95-1.7,1.98-3.34,3.08-4.95.52-.75,1.06-1.48,1.59-2.22.78-1.08-1.38,1.72-.54.69.31-.39.62-.78.94-1.16,1.18-1.44,2.42-2.83,3.69-4.19,2.77-2.97,5.68-5.79,8.59-8.61,6.13-5.95,12.02-12.01,16.98-19,4.9-6.91,8.42-14.67,11.5-22.53,6.17-15.74,10.21-32.43,14.35-48.8,4.29-16.96,8.11-34.05,11.45-51.22,3.95-20.3,7.19-40.73,9.9-61.23.31-2.36-1.38-5.87-3.08-7.42s-3.69-2.57-6.03-2.89c-5-.67-10.26,2.42-11.52,7.52-1.99,8.08-4.47,16.04-7.47,23.81-.37.96-.75,1.92-1.14,2.88-.15.38-.31.76-.47,1.14-.11.26-.9,2.19-.19.45s-.08.18-.2.45c-.16.38-.33.75-.49,1.13-.5,1.12-1.01,2.24-1.52,3.36-1.72,3.69-3.56,7.33-5.52,10.9-3.76,6.85-7.95,13.47-12.57,19.78-.59.8-1.18,1.59-1.78,2.38-1.27,1.68,1.26-1.6.38-.48-.31.39-.61.78-.91,1.16-1.22,1.54-2.47,3.05-3.74,4.54-2.53,2.96-5.16,5.82-7.9,8.59-1.49,1.51-3.01,2.98-4.56,4.42-.93.86-1.87,1.7-2.84,2.51-.33.27-.66.54-.98.81-1.66,1.36,1.75-1.23.11-.1-1.88,1.3-3.76,2.57-5.81,3.59l-.54.26c-1.01.46-.72.34.87-.35-.54.08-1.13.42-1.65.59-1.09.34-2.2.58-3.33.75l2.79-.38c-1.49.17-2.95.17-4.45-.02l2.79.38c-.56-.1-1.11-.2-1.65-.35l-.55-.16c-1.03-.37-.74-.23.87.43-.71-.56-2.09-1.39-2.93-1.73l1.21.94c-.3-.25-.59-.5-.88-.76-.44-.39-.86-.81-1.28-1.23-.85-.86-1.65-1.77-2.42-2.69-3.2-3.81-6.09-7.84-9.46-11.51-7.02-7.65-15.29-14.38-24.22-19.68-4.52-2.68-9.25-4.86-14.11-6.85-4.38-1.79-8.93-3.35-13.62-4.07-6.93-1.06-14.14-.7-20.16,3.32-5.43,3.62-8.77,8.82-11.21,14.76-1.69,4.1-2.66,8.42-3.39,12.79-.99,5.89-1.77,11.82-2.48,17.75-1.31,10.91-2.14,21.87-2.51,32.85-.75,22.48.57,44.93,3.58,67.21,3.25,24.05,8.69,47.77,16.49,70.76,5.14-3.95,10.28-7.91,15.42-11.86-1.08-.75-2.14-1.5-3.19-2.28-.49-.36-.99-.71-1.46-1.1.04.03,2.16,1.7.89.68-.34-.27-.68-.54-1.02-.82-2.04-1.65-4.02-3.36-5.94-5.13-3.95-3.64-7.65-7.54-11.13-11.62-.81-.95-1.6-1.91-2.39-2.87-.45-.56-.89-1.12-1.34-1.68-.41-.52-1.17-1.55.65.85-.22-.29-.44-.57-.65-.85-1.69-2.23-3.33-4.5-4.9-6.81-3.17-4.63-6.11-9.41-8.88-14.29-2.78-4.92-5.38-9.94-7.82-15.03-1.28-2.67-2.52-5.37-3.73-8.08-.55-1.23-1.09-2.47-1.62-3.71-.15-.36-.3-.71-.46-1.07-.52-1.22.89,2.13.38.9-.3-.72-.6-1.43-.89-2.15-4.56-11.08-8.58-22.37-12.29-33.76-4.18-12.81-7.98-25.74-11.7-38.69-1.23-4.27-5.52-7.92-10.12-7.71-4.92.22-8.44,3.18-10.12,7.71-6.94,18.68-10.98,38.27-12.87,58.08-1.92,20.06-1.11,40.15,1.61,60.09,2.58,18.9,7.22,37.53,13.96,55.38,6.81,18.05,15.45,35.44,26.5,51.28s22.91,29.03,37.49,40.38c2.27,1.77,4.56,3.52,6.9,5.2,2.09,1.5,5.71,1.72,8.09,1.06s5.08-2.55,6.28-4.83c2.87-5.43,1.01-10.93-3.77-14.37h0Z"/>
  </g>
</svg>