<?xml version="1.0" encoding="UTF-8"?>
<svg id="_图层_2" data-name="图层 2" xmlns="http://www.w3.org/2000/svg" viewBox="0 0 427 408">
  <defs>
    <style>
      .cls-1 {
        fill: none;
        stroke: #000;
        stroke-linecap: round;
        stroke-linejoin: round;
        stroke-width: 25px;
      }

      .cls-2 {
        stroke-width: 0px;
      }
    </style>
  </defs>
  <g id="_图层_1-2" data-name="图层 1">
    <g>
      <g>
        <path class="cls-2" d="M388.32,191.42c-14.29-11.86-31.33-21.47-50.4-21.57-12.79-.06-25.56,4.42-35.73,12.11-4.3,3.25-8.34,6.71-11.91,10.76-1.77,2.01-3.42,4.14-5.03,6.29-2.44,3.26-4.11,6.8-5.63,10.57-3.34,8.28-3.71,17.48-2.21,26.19s5.79,16.75,12.09,22.47c7.87,7.14,17.93,10.47,28.1,12.79,9.02,2.05,18.05,4.05,26.79,7.13,2.14.75,4.26,1.57,6.35,2.45l-2.51-1.06c6.1,2.6,11.92,5.8,17.18,9.85l-2.13-1.64c3.6,2.81,6.82,6.04,9.64,9.64l-1.64-2.13c2.7,3.5,4.96,7.29,6.68,11.37l-1.06-2.51c1.36,3.3,2.34,6.73,2.85,10.26l-.38-2.79c.42,3.14.45,6.3.05,9.45l.38-2.79c-.41,2.96-1.19,5.83-2.35,8.59l1.06-2.51c-1.15,2.67-2.63,5.17-4.39,7.48l1.64-2.13c-2.13,2.75-4.61,5.18-7.35,7.31l2.13-1.64c-3.36,2.58-7.05,4.67-10.95,6.32l2.51-1.06c-4.51,1.88-9.24,3.14-14.08,3.79l2.79-.38c-4.75.61-9.51.58-14.26-.04l2.79.38c-7.03-.96-13.84-2.99-20.37-5.74l2.51,1.06c-12.86-5.48-24.42-13.47-35.63-21.72-2.06-1.52-5.73-1.71-8.09-1.06s-5.08,2.55-6.28,4.83c-1.29,2.44-1.93,5.39-1.06,8.09l1.06,2.51c.93,1.58,2.19,2.83,3.77,3.77,15.17,11.16,31.32,21.94,49.76,26.79,8.92,2.34,18.06,3.19,27.19,1.96,8.33-1.12,16.38-3.65,23.7-7.87,7.38-4.25,13.86-10.22,18.36-17.48,4.67-7.52,7.03-16.83,6.36-25.66-1.54-20.19-14.53-37.19-31.59-47.32-8.43-5-17.81-8.52-27.21-11.21-8.59-2.46-17.44-3.91-26.01-6.41-2.15-.63-4.26-1.35-6.32-2.2l2.51,1.06c-2.94-1.25-5.73-2.79-8.26-4.74l2.13,1.64c-1.8-1.43-3.41-3.06-4.83-4.87l1.64,2.13c-1.58-2.07-2.87-4.32-3.89-6.71l1.06,2.51c-1.18-2.84-1.96-5.8-2.39-8.84l.38,2.79c-.45-3.42-.43-6.87.02-10.29l-.38,2.79c.47-3.32,1.34-6.55,2.64-9.63l-1.06,2.51c1.28-2.98,2.96-5.7,4.94-8.26l-1.64,2.13c3.48-4.49,7.52-8.56,12.01-12.05l-2.13,1.64c3.81-2.94,7.95-5.43,12.38-7.32l-2.51,1.06c3.88-1.63,7.95-2.77,12.12-3.35l-2.79.38c4.24-.56,8.52-.54,12.75.02l-2.79-.38c5.03.7,9.91,2.14,14.58,4.1l-2.51-1.06c6.71,2.87,12.91,6.76,18.69,11.2l-2.13-1.64c1.16.9,2.3,1.81,3.43,2.75,2.2,1.82,4.47,3.08,7.42,3.08,2.58,0,5.65-1.14,7.42-3.08s3.2-4.63,3.08-7.42c-.12-2.63-.96-5.67-3.08-7.42h0Z"/>
        <line class="cls-1" x1="335.4" y1="147.98" x2="335.4" y2="395.5"/>
      </g>
      <polyline class="cls-1" points="12.5 395.5 79.5 213.5 146.5 347.5 230.23 128 297.73 94.5 365.5 109.5 414.5 12.5"/>
    </g>
  </g>
</svg>